<svg viewBox="0 0 434.5 279.1"><path d="M62.5 110.6h0 0 0z" fill="#fff"/><path d="M209.6 103.5c0-.5.3-2-.9-3.7-1.1-1.5-2.7-1.9-4.4-1.9h-.2-.2c-1.6 0-3.3.4-4.4 1.9-1.2 1.7-.9 3.2-.9 3.7s-3.7 6.7-3.2 7.6c.3.5 1.5-.3 1.5.4s-1.2 7.7 7.1 7.7h.1.1c8.3 0 7.1-7 7.1-7.7s1.2.1 1.5-.4c.4-.9-3.2-7.1-3.2-7.6zm-2.8-1.9c.4 0 .8.4.8.8s-.4.8-.8.8-.8-.4-.8-.8.3-.8.8-.8zm-5.4 0c.4 0 .8.4.8.8s-.4.8-.8.8-.8-.4-.8-.8.3-.8.8-.8zm7.4 14.4c-.4.7-1.4 1.8-4.5 1.9h-.2-.2c-3.1 0-4-1.2-4.5-1.9-1.3-2.2-.1-5.9.9-8.4.4-1-.4-2.3.5-2.4h.1c.8 0 2.4 1.2 3.1 1.4h.2.2c.7-.2 2.4-1.5 3.1-1.4.9.1.1 1.4.5 2.4.8 2.5 2.1 6.2.8 8.4z" fill="#71cff1"/><path d="M148.9 103.3c5 0 9.7.9 14 2.8s8.1 4.4 11.4 7.7 5.9 7 7.8 11.4c1.9 4.3 2.8 9 2.8 14v36h-14.2v-36c0-3-.6-5.8-1.7-8.4s-2.7-4.9-4.6-6.9c-2-2-4.3-3.5-7-4.6s-5.5-1.7-8.5-1.7-5.8.6-8.4 1.7-4.9 2.7-6.9 4.6c-2 2-3.5 4.3-4.6 6.9s-1.7 5.4-1.7 8.4v36H113v-36c0-3-.6-5.8-1.7-8.4s-2.7-4.9-4.6-6.9c-2-2-4.3-3.5-7-4.6s-5.5-1.7-8.5-1.7-5.8.6-8.4 1.7-4.9 2.7-6.9 4.6c-2 2-3.5 4.3-4.6 6.9s-1.7 5.4-1.7 8.4v36H55.4v-36c0-5 .9-9.7 2.8-14s4.4-8.1 7.7-11.4 7.1-5.8 11.4-7.7c4.4-1.9 9-2.8 13.9-2.8 6 0 11.4 1.3 16.4 3.9s9.1 6.2 12.4 10.6c3.3-4.5 7.5-8 12.5-10.6 5.1-2.6 10.5-3.9 16.4-3.9zm83.4 22c1.9-4.3 4.4-8.1 7.7-11.4s7.1-5.8 11.4-7.7c4.4-1.9 9-2.8 13.9-2.8 5 0 9.7.9 14 2.8s8.1 4.4 11.4 7.7 5.9 7 7.8 11.4c1.9 4.3 2.8 9 2.8 14v36h-14.2v-36c0-3-.6-5.8-1.7-8.4s-2.7-4.9-4.6-6.9c-2-2-4.3-3.5-7-4.6s-5.5-1.7-8.5-1.7-5.8.6-8.4 1.7-4.9 2.7-6.9 4.6c-2 2-3.5 4.3-4.6 6.9s-1.7 5.4-1.7 8.4v36h-14.2v-36c0-5 .9-9.7 2.8-14zm130.1 24.6l10.1 10.1-5 5a35.3 35.3 0 0 1-11.7 7.8 36.1 36.1 0 0 1-13.8 2.7 36.1 36.1 0 0 1-13.8-2.7 35.3 35.3 0 0 1-11.7-7.8c-3.5-3.5-6.1-7.5-7.8-11.9s-2.6-8.9-2.6-13.5.9-9.1 2.6-13.4c1.7-4.4 4.3-8.3 7.8-11.8s7.5-6.2 11.9-7.9c4.4-1.8 8.9-2.6 13.5-2.6s9.1.9 13.5 2.6c4.4 1.8 8.4 4.4 11.9 7.9l5 5-39.6 39.6c4.1 2 8.3 2.7 12.9 2 4.5-.7 8.5-2.7 11.9-6.2l4.9-4.9zm-35.6-25.8c-4.3 4.3-6.4 9.4-6.4 15.4 0 3.3.7 6.5 2.2 9.4l5.8-5.8 8.3-8.3 8.5-8.4 6.3-6.2c-4.1-2-8.3-2.7-12.9-2.1-4.5.6-8.4 2.6-11.8 6zm93.6 36.8v14.2h-7c-4.9 0-9.5-.9-13.9-2.8a36.57 36.57 0 0 1-19.3-19.3c-1.9-4.4-2.8-9-2.8-13.9V74.5h14.2v30.2h28.8V119h-28.8v20.2c0 3 .6 5.8 1.7 8.5s2.7 5 4.6 7c2 2 4.3 3.5 7 4.6s5.5 1.7 8.5 1.7h7z" fill="#f8f9fa"/><linearGradient id="A" gradientUnits="userSpaceOnUse" x1="208.831" y1="175.048" x2="208.347" y2="122.76"><stop offset="0" stop-color="#6fa3e8"/><stop offset="1" stop-color="#71cff1"/></linearGradient><path d="M203.1 170.7v-37.6h-7.5c-1.1 0-1.9-.8-1.9-1.9v-6.6c0-1.1.8-1.9 1.9-1.9h13.9c2.6 0 4.6 2 4.6 4.6v37.6h7.5c1.1 0 1.9.8 1.9 1.9v6.6c0 1.1-.8 1.9-1.9 1.9h-13.9c-2.6 0-4.6-2-4.6-4.6z" fill="url(#A)"/><linearGradient id="B" gradientUnits="userSpaceOnUse" x1="14.293" y1="139.565" x2="264.96" y2="139.565"><stop offset="0" stop-color="#6fa3e8"/><stop offset="1" stop-color="#71cff1"/></linearGradient><path d="M258.1 122.2c-1.3.5-2.4 1.2-3.5 2 .7 5 1.1 10.2 1.1 15.4 0 59-47.8 106.8-106.8 106.8S42.1 198.6 42.1 139.6 89.9 32.8 148.9 32.8c46.5 0 86 29.7 100.7 71.1.2-.1.4-.2.7-.3 2.8-1.2 5.7-2 8.7-2.5-16.3-50.4-63.5-86.8-119.3-86.8-69.2 0-125.3 56.1-125.3 125.3s56.1 125.3 125.3 125.3S265 208.8 265 139.6c0-6.4-.5-12.6-1.4-18.8-2 .2-3.8.6-5.5 1.4z" fill="url(#B)"/></svg>
